<?xml version="1.0" encoding="UTF-8"?>
<svg id="Calque_2" data-name="Calque 2" xmlns="http://www.w3.org/2000/svg" viewBox="0 0 14.1 22.27">
  <defs>
    <style>
      .cls-1 {
        fill: #fff1db;
      }
    </style>
  </defs>
  <g id="Calque_1-2" data-name="Calque 1">
    <path class="cls-1" d="M2.85,20.27c1.27-.15,2.83.05,4.12-.09,1.54-.18,3.22-.18,4.76-.18,0,.09-.13.23,0,.27.51.14.51.32.51.5,0,.09-.39,0-.26.09-.39,0-1.03.05-.64.14.13.09.64,0,.77.14.13.14-.13.27,0,.41h.51c.13.09-.13.27,0,.27.39.09.9.05,1.42.05,0,.09.13.18-.13.23-4.5.09-9.14.27-13.64.14-.51-.05-.13-.23.26-.36-.13.05-.13-.09-.26-.05,0-.14.26-.36.77-.41h-.39c-.13-.05,0-.14,0-.23.13,0,.26,0,.26-.05v-.18H.41c.13,0,.26,0,.26-.05v-.18c.26-.05.64.05.9,0v-.14c-.26-.05-.64,0-.9,0,.13-.05.13-.09.13-.18.39-.05.77.09,1.16-.05h-.39c.26-.23.9-.05,1.29-.09Z"/>
    <path class="cls-1" d="M2.85.27c1.27-.15,2.83.05,4.12-.09,1.54-.18,3.22-.18,4.76-.18,0,.09-.13.23,0,.27.51.14.51.32.51.5,0,.09-.39,0-.26.09-.39,0-1.03.05-.64.14.13.09.64,0,.77.14.13.14-.13.27,0,.41h.51c.13.09-.13.27,0,.27.39.09.9.05,1.42.05,0,.09.13.18-.13.23-4.5.09-9.14.27-13.64.14-.51-.05-.13-.23.26-.36-.13.05-.13-.09-.26-.05,0-.14.26-.36.77-.41h-.39c-.13-.05,0-.14,0-.23.13,0,.26,0,.26-.05v-.18H.41c.13,0,.26,0,.26-.05v-.18c.26-.05.64.05.9,0v-.14c-.26-.05-.64,0-.9,0,.13-.05.13-.09.13-.18.39-.05.77.09,1.16-.05h-.39c.26-.23.9-.05,1.29-.09Z"/>
    <path class="cls-1" d="M11.14,16.59c-.07-.14-.16-.28-.27-.39-.2-.19-.4-.38-.6-.57-.42-.42-.84-.85-1.27-1.28-.43-.43-.85-.86-1.27-1.29l-.32-.31c-.1-.1-.24-.23-.23-.21-.05-.04-.09-.06-.13-.07h-.02c-.04.07-.06.12-.08.16.04-.03-.15.17-.24.27l-.34.37c-.48.5-.94.99-1.4,1.47-.48.49-.95.97-1.42,1.44l-.16.16s-.05.06-.07.08c-.04.06-.08.12-.11.19-.03.07-.05.14-.06.21,0,.04,0,.07,0,.11v.22c-.09,0-.23-.22-.27,0-.14.88-.32.88-.5.88-.09,0,0-.66-.09-.44,0-.34-.03-.77,0-1,.04-.24.04-.36-.09-.07-.17.17-.04,1.07-.19,1.29-.14.22-.27-.22-.41,0v.88c-.09.22-.27-.22-.27,0-.09.66-.05,1.54-.05,2.42-.09,0-.18.22-.23-.22-.01-.97-.03-1.94-.04-2.92v-.73s-.01-.4-.01-.4c0-.18.03-.37.07-.55.08-.36.22-.71.42-1.02.1-.16.22-.3.35-.44l.27-.28c1.64-1.67,3.28-3.35,4.91-5.02,1.65,1.64,3.29,3.26,4.93,4.88l.26.26c.08.08.25.26.35.4.23.31.39.65.5,1.02.05.18.09.37.1.56,0,.09.01.19.01.28v.18s0,.72,0,.72c-.01.96-.02,1.92-.04,2.88-.05.88-.23.22-.36-.44.05.22-.09.22-.05.44-.14,0-.36-.44-.41-1.32v.66c-.05.22-.14,0-.23,0,0-.22,0-.44-.05-.44-.05,0-.14,0-.18,0v.88c0-.22,0-.44-.05-.44-.05,0-.14,0-.18,0-.05-.44.05-1.1,0-1.54h-.14c-.05.44,0,1.1,0,1.54-.05-.22-.09-.22-.18-.22-.05-.66.09-1.32-.05-1.98v.66c-.11-.22-.12-.61-.11-1.02,0-.19.02-.4.02-.59,0-.12-.02-.23-.06-.32Z"/>
    <path class="cls-1" d="M2.96,5.65c.07.14.16.28.27.39.2.19.4.38.6.57.42.42.84.85,1.27,1.28.43.43.85.86,1.27,1.29l.32.31c.1.1.24.23.23.21.05.04.09.06.13.07h.02c.04-.07.06-.12.08-.16-.04.03.15-.17.24-.27l.34-.37c.48-.5.94-.99,1.4-1.47.48-.49.95-.97,1.42-1.44l.16-.16s.05-.06.07-.08c.04-.06.08-.12.11-.19.03-.07.05-.14.06-.21,0-.04,0-.07,0-.11v-.22c.09,0,.23.22.27,0,.14-.88.32-.88.5-.88.09,0,0,.66.09.44,0,.34.03.77,0,1-.04.24-.04.36.09.07.17-.17.04-1.07.19-1.29.14-.22.27.22.41,0v-.88c.09-.22.27.22.27,0,.09-.66.05-1.54.05-2.42.09,0,.18-.22.23.22.01.97.03,1.94.04,2.92v.73s.01.4.01.4c0,.18-.03.37-.07.55-.08.36-.22.71-.42,1.02-.1.16-.22.3-.35.44l-.27.28c-1.64,1.67-3.28,3.35-4.91,5.02-1.65-1.64-3.29-3.26-4.93-4.88l-.26-.26c-.08-.08-.25-.26-.35-.4-.23-.31-.39-.65-.5-1.02-.05-.18-.09-.37-.1-.56,0-.09-.01-.19-.01-.28v-.18s0-.72,0-.72c.01-.96.02-1.92.04-2.88.05-.88.23-.22.36.44-.05-.22.09-.22.05-.44.14,0,.36.44.41,1.32v-.66c.05-.22.14,0,.23,0,0,.22,0,.44.05.44.05,0,.14,0,.18,0v-.88c0,.22,0,.44.05.44.05,0,.14,0,.18,0,.05.44-.05,1.1,0,1.54h.14c.05-.44,0-1.1,0-1.54.05.22.09.22.18.22.05.66-.09,1.32.05,1.98v-.66c.11.22.12.61.11,1.02,0,.19-.02.4-.02.59,0,.12.02.23.06.32Z"/>
  </g>
</svg>