<?xml version="1.0" encoding="UTF-8"?>
<svg id="Calque_2" xmlns="http://www.w3.org/2000/svg" version="1.1" viewBox="0 0 14.1 22.3">
  <!-- Generator: Adobe Illustrator 30.2.1, SVG Export Plug-In . SVG Version: 2.1.1 Build 1)  -->
  <defs>
    <style>
      .st0 {
        fill: #a82a2a;
      }
    </style>
  </defs>
  <g id="Calque_1-2">
    <path class="st0" d="M2.8,20.3c1.3-.1,2.8,0,4.1,0,1.5-.2,3.2-.2,4.8-.2,0,0-.1.2,0,.3.5.1.5.3.5.5s-.4,0-.3,0c-.4,0-1,0-.6.1.1,0,.6,0,.8.1.1.1-.1.3,0,.4h.5c.1,0-.1.3,0,.3.4,0,.9,0,1.4,0,0,0,.1.2-.1.2-4.5,0-9.1.3-13.6.1-.5,0-.1-.2.3-.4-.1,0-.1,0-.3,0,0-.1.3-.4.8-.4h-.4c-.1,0,0-.1,0-.2.1,0,.3,0,.3,0v-.2h-.5c.1,0,.3,0,.3,0v-.2c.3,0,.6,0,.9,0h0c-.3-.2-.6-.1-.9-.1.1,0,.1,0,.1-.2.4,0,.8,0,1.2,0h-.4c.3-.2.9,0,1.3,0h0Z"/>
    <path class="st0" d="M2.8.3c1.3-.2,2.8,0,4.1,0C8.5,0,10.2,0,11.7,0c0,0-.1.2,0,.3.5.1.5.3.5.5s-.4,0-.3,0c-.4,0-1,0-.6.1.1,0,.6,0,.8.1.1.1-.1.3,0,.4h.5c.1,0-.1.3,0,.3.4,0,.9,0,1.4,0,0,0,.1.2-.1.2-4.5,0-9.1.3-13.6.1-.5,0-.1-.2.3-.4-.1,0-.1,0-.3,0,0-.1.3-.4.8-.4h-.4c-.1,0,0-.1,0-.2.1,0,.3,0,.3,0v-.2h-.5c.1,0,.3,0,.3,0v-.2c.3,0,.6,0,.9,0h0c-.3-.2-.6-.1-.9-.1.1,0,.1,0,.1-.2.4,0,.8,0,1.2,0h-.4c.3-.2.9,0,1.3,0h0Z"/>
    <path class="st0" d="M11.1,16.6c0-.1-.2-.3-.3-.4-.2-.2-.4-.4-.6-.6-.4-.4-.8-.9-1.3-1.3s-.9-.9-1.3-1.3l-.3-.3c0-.1-.2-.2-.2-.2,0,0,0,0-.1,0h0c0,0,0,.1,0,.2,0,0-.2.2-.2.3l-.3.4c-.5.5-.9,1-1.4,1.5-.5.5-.9,1-1.4,1.4l-.2.2s0,0,0,0c0,0,0,.1-.1.2s0,.1,0,.2h0v.3c0,0-.2-.2-.3,0-.1.9-.3.9-.5.9s0-.7,0-.4c0-.3,0-.8,0-1,0-.2,0-.4,0,0-.2.2,0,1.1-.2,1.3-.1.2-.3-.2-.4,0v.9c0,.2-.3-.2-.3,0,0,.7,0,1.5,0,2.4,0,0-.2.2-.2-.2,0-1,0-1.9,0-2.9v-1.1c0-.2,0-.4,0-.5,0-.4.2-.7.4-1,.1-.2.2-.3.4-.4l.3-.3c1.6-1.7,3.3-3.4,4.9-5,1.7,1.6,3.3,3.3,4.9,4.9l.3.3c0,0,.2.3.4.4.2.3.4.6.5,1,0,.2,0,.4.1.6,0,0,0,.2,0,.3v.9c0,1,0,1.9,0,2.9,0,.9-.2.2-.4-.4,0,.2,0,.2,0,.4-.1,0-.4-.4-.4-1.3v.7c0,.2-.1,0-.2,0,0-.2,0-.4,0-.4h-.2v.9c0-.2,0-.4,0-.4h-.2c0-.4,0-1.1,0-1.5h-.1c0,.4,0,1.1,0,1.5,0-.2,0-.2-.2-.2,0-.7,0-1.3,0-2v.7c-.1-.2-.1-.6-.1-1,0-.2,0-.4,0-.6s0-.2,0-.3h0Z"/>
    <path class="st0" d="M3,5.6c0,.1.2.3.3.4.2.2.4.4.6.6.4.4.8.8,1.3,1.3s.8.9,1.3,1.3l.3.3c0,.1.2.2.2.2,0,0,0,0,.1,0h0c0,0,0-.1,0-.2,0,0,.2-.2.2-.3l.3-.4c.5-.5.9-1,1.4-1.5.5-.5.9-1,1.4-1.4l.2-.2s0,0,0,0c0,0,0-.1.1-.2s0-.1,0-.2h0v-.3c0,0,.2.2.3,0,.1-.9.3-.9.5-.9s0,.7,0,.4c0,.3,0,.8,0,1,0,.2,0,.4,0,0,.2-.2,0-1.1.2-1.3.1-.2.3.2.4,0v-.9c0-.2.3.2.3,0,0-.7,0-1.5,0-2.4,0,0,.2-.2.2.2,0,1,0,1.9,0,2.9v1.1c0,.2,0,.4,0,.6,0,.4-.2.7-.4,1-.1.2-.2.3-.4.4l-.3.3c-1.6,1.7-3.3,3.3-4.9,5-1.7-1.6-3.3-3.3-4.9-4.9l-.3-.3c0,0-.2-.3-.4-.4-.2-.3-.4-.7-.5-1,0-.2,0-.4-.1-.6,0,0,0-.2,0-.3v-.9c0-1,0-1.9,0-2.9,0-.9.2-.2.4.4,0-.2,0-.2,0-.4.1,0,.4.4.4,1.3v-.7c0-.2.1,0,.2,0,0,.2,0,.4,0,.4h.2v-.9c0,.2,0,.4,0,.4h.2c0,.4,0,1.1,0,1.5h.1c0-.4,0-1.1,0-1.5,0,.2,0,.2.2.2,0,.7,0,1.3,0,2v-.7c.1.2.1.6.1,1,0,.2,0,.4,0,.6s0,.2,0,.3h0Z"/>
  </g>
</svg>