<?xml version="1.0" encoding="UTF-8"?>
<svg id="Calque_1" xmlns="http://www.w3.org/2000/svg" version="1.1" viewBox="0 0 13.8 21.7">
  <!-- Generator: Adobe Illustrator 30.2.1, SVG Export Plug-In . SVG Version: 2.1.1 Build 1)  -->
  <defs>
    <style>
      .st0 {
        fill: #fff1db;
      }
    </style>
  </defs>
  <path class="st0" d="M13.5,7.9v-.2c0,.6-.2,1.2-.5,1.7.4-.5.8-1.2.8-2,0-.7,0-1.4-.5-1.8.2,0,.2-.4.2-.8,0-.3-.1-.7-.2-.7-.2-.2-.3-.5-.5-.7.1.2.2.3.3.5-.1-.2-.2-.3-.3-.5-1.1-1.4-2.4-2.7-4.3-3.3-.5-.2-1.5-.4-2.5-.3-1,0-2,.4-2.5.6-.2,0-.3.1-.5.2.2-.1.2-.1.5-.2-.6.4-1,.8-1.4,1.2.1,0,.2,0,.4-.1l-.2.2c-.1.3-.5.7-.7,1,0,0-.2,0-.3.2h0c-.5.5-.8,1.4-1,2,0,0,0,.2,0,.2,0,.2,0,.4,0,.6,0,0-.2.5-.2.2,0,.5,0,1,.1,1.4,0,.8.4,1.7,1,2.4.2.3.6.7.8.9.2.2.4.5.6.8h0c.3.4.7.8.8,1.4.3.4.6,1,.8,1.1.2.5.4.7.6,1.2,0-.2.2.5.2.2,0-.4,0-.4,0-.7h0c-.3-1.4-.7-2.7-1.4-4.1-.1-.2-.3-.4-.5-.7l-.2-.2h-.1c0-.2-.1-.3-.2-.3-.3-.3-.5-.7-.6-1-.4-.7-.4-1.7-.3-2.5,0-.2.1-.3.2-.4.1-.7.6-1.5,1.2-2.1,0,0,0,0,0,0,.3-.3.6-.5.9-.7,0,0,0,0,0,0,0,0,.5-.4,1.1-.6.6-.3,1.2-.4,1.3-.4,0,0,0,0,.1,0,.9,0,1.8.5,2.5.8.2,0,.4,0,.5,0,0,.1.2,0,.3.1.2.5.4.5.3.3.3.2.5.5.7.7.1,0,.2.2.3.3,0,0,.1.2,0,.3.2.2.1.2.2.5,0,0,.4.7.4.8h0c0,.3,0,.6,0,.9,0,1-.1,2.1-.6,2.8,0,0,0-.2.2-.1-.1.2-.3.4-.5.6-.1.1-.2.1-.4.3-.2.2-.3.3-.4.5,0,.1-.2.2-.3.2-.1.2,0,.1-.1.3h0c0,.2-.2.2-.3.5,0,0,0,.1,0,.2,0,0,0,.2-.2.2h0s0,0,0,.1c0,.1-.1.9,0,1h0c0,.1,0,.2,0,.2h0c0,.1,0,.1,0,.1h0c0,.2,0,.2,0,.1,0,0,0,.2,0,.3.1-.2.3-.4.5-.6,0,.1-.1.3-.1.4-.1.1-.2.3-.4.5,0,0,0,.1,0,.2,0,0,0,.1-.1.2,0-.1,0-.2,0-.3,0,0-.1.2-.2.3,0,0,0,.2,0,.4,0,0,0,0-.1.1,0,0,0,.1,0,.1,0,0,.1-.3.2-.2,0,0,0,.2-.1.3,0,0,0,0,0,0,0,0,0,.2,0,.3,0,0,0,0,0-.1,0,.1-.1-.8-.1-.6,0,0,0,.8,0,.7,0,0,0,0,.1,0h0c0-.2.1-.2.1-.2,0,.2-.2-.6-.2-.4h0s0,.2,0,.2c0,0,0,.1,0,.2h0c0,.1,0,.2,0,.2.1-.5.4.4.5,0-.1.2,0,0,0-.3,0,0,.1,0,.2-.2,0-.1,0,0,0-.1,0,0,.1-.2.1-.1,0-.1,0-.1.1-.2,0-.1,0,0,0,0,0-.1.1-.3.2-.4,0,0,.2-.1.2,0,0,.2,0-.1-.1.1.1,0,0,.2,0,.3,0,0,.1-.2.1-.3h0c0,0,0-.3.2-.4,0,0,0,0,0,0h0c0-.1,0-.2,0-.1,0,0,0-.1,0-.2,0,0,.1-.8.1-.8,0-.1.1,0,.1-.2,0,0-.3,1-.2.9,0,0,.3-1.2.4-1.2,0,0,0-.2,0-.2,0-.1,0,0,.1,0,0,0,0,0,0,0h0c0-.3.2-.5.3-.7,0,0,0,.2,0,.3h0s0,.1,0,.1c0-.1.1-.2.2-.3h0s0,0,0,0c0,0,0,0,0,0h0c0,0,.1,0,.2-.2,0,0,.1-.2.2-.3,0,0,0,0,0-.1.2-.2.4-.3.6-.5,0-.1,0-.1-.1,0v-.2c.2.2.4-.3.5,0,0,0,.1-.1.2-.3,0,0,0,0,0-.2.1-.2,0-.1.2-.3,0,0,0,0,0,0,0-.3.2-.2.2-.4,0-.2.1-.5,0-.5,0-.2.1-.2.2-.2h0Z"/>
  <path class="st0" d="M5.1,18.5h0c0,0-.2,0-.2,0,.2.3.4.5.5,0,0,.3.2.5.2.4,0,0,0-.1.1-.1,0,0,0,0,0,0,0,0,0,0,0,0,.2-.2.5-.1.8,0,.2,0,.6.1.7.2,0,0,0,0,0,0,0,0,0,0,0,0,0,0,.2-.2.3-.2,0,0,0,0,0-.1h0c0,0,.1,0,.2-.1,0,0,0,0,0,0h0c0,0,.2,0,.3,0,0,0,0,0,0,0h0s0,0,0,0c0-.1.1,0,.2-.2.2,0,.5,0,.7-.2h0c0,0,.1-.3.3-.2,0-.1.2-.2.2-.4,0,0,.1-.1.2-.2,0-.1,0-.1,0-.2,0-.1,0,0-.1-.1h0c-.2-.1-.4-.2-.7-.2-.1,0-.3,0-.5,0-.2,0-.4.1-.5.2,0,0,0,0,0-.1-.1,0-.3,0-.4,0h0c0,0-.1,0-.2,0,0,0,0,0,0,0,0-.1-.4.3-.5.2h0c-.2,0-.3-.3-.5-.3,0,0,0,.1,0,.2,0,0,0,0,0,0,0-.2-.1-.1,0,0,0,0-.1,0-.2,0,0,0,0,0,0,0,0,0,0,0,0,0,0,0,0,0,0,0,0,0-.2.1-.2.1h0c0,0-.1-.2-.2-.2-.2,0-.4,0-.6,0,0,0,0,0,0,.1,0,0-.2-.1-.3-.1,0,0,0,0,0-.1,0,0,0,0,0,0h0s0-.2,0-.1c0,0,0,0,0,0,0,0,0,0,0,0h0s0,0,0,0c0,0-.1.3-.2.3h0s0,0,0,0h0s0,0,0,0h0c0,0,0,0,0,0,0,0,0,.1.1.2,0,0,0,0,0,0,0,0,0-.1,0-.1,0,0,0,.1,0,0,0,0,0,0,0,0,0,0,0,0,0,0,0,0,0,0,0,0,0,0,0,0,0,0,0,0,0,0,0,0,0,0,0,0,0,0,0,0,0,0,0,.1,0,0,0,0,0,0h0c0,0,0,.1,0,0,0,0,0,0,0,0,0,0,0-.3,0-.3,0,0-.1.3,0,.3,0,0,0,0,0,.1h0c0,0,0,0,0,0,0,0,0-.3,0-.3h0s0,0,0,0c0,0,0,0,0,0h0s0,0,0,0c0,0,0,.5,0,.5,0-.1,0-.1,0-.1,0,0,0,0,0,.1,0,0,0,0,0,0,0,0,0,0,0,0,0,0,0,0,0,0,0,0,0,0,0,0,0,0,0,0,0,0,0,0,0,.1,0,.2,0,0,0-.1,0-.1,0,.1,0,0,0,.1,0,0,0,0,0,0h0s0,0,0,0h0c0,0,0,0,0,0h0c0,0,0,0,0,0,0,0,.1-.2.1-.1,0,0,0,0,0,0,0,0-.2.1-.1.1,0,0,.2-.2.2-.1,0,0,0,0,0,0,0,0,0,0,0,.1h0s0,0,0,0c0,0,0,0,.1,0,0,0,0,.1,0,.2h0s0,0,0,0c0,0,0,0,0,0,0,0,0,0,0,0h0c0,.2,0,0,.1,0,0,0,0,0,0,0,0,0,0,0,.1.1,0,0,0,0,0-.1h0c0,.2,0,.2,0,.3,0,0,0,0,0,0,0,0,0,0,0,0,0,0,0,0,0,0h0s0,.2,0,.2c0,0,0,0,0-.1,0,0,0,0,0,.1h0Z"/>
  <path class="st0" d="M5.2,21.4h0c0,0-.2,0-.2,0,.2.3.3.5.5,0,0,.3.2.5.2.4,0,0,0-.1,0-.1,0,0,0,0,0,0,0,0,0,0,0,0,.2-.2.4-.1.7,0,.1,0,.5.1.6.2h0s0,0,0,0c0,0,.2-.2.2-.2,0,0,0,0,0-.1h0c0,0,.1,0,.2-.1,0,0,0,0,0,0h0c0,0,.2,0,.3,0,0,0,0,0,0,0h0s0,0,0,0c0-.1.1,0,.2-.2.2,0,.4,0,.6-.2h0c0,0,.1-.3.2-.2,0-.1.2-.2.2-.4,0,0,.1-.1.2-.2,0-.1,0-.1,0-.2,0-.1,0,0,0-.1h0c-.2-.1-.4-.2-.6-.2-.1,0-.3,0-.4,0-.1,0-.3.1-.4.2,0,0,0,0,0-.1-.1,0-.3,0-.4,0h0c0,0-.1,0-.2,0,0,0,0,0,0,0,0-.1-.4.3-.4.2,0,0,0,0,0,0-.1,0-.3-.3-.4-.3,0,0,0,.1,0,.2,0,0,0,0,0,0,0-.2-.1-.1,0,0,0,0-.1,0-.2,0,0,0,0,0,0,0,0,0,0,0,0,0,0,0,0,0,0,0,0,0-.1.1-.2.1h0c0,0,0-.2-.2-.2-.2,0-.3,0-.5,0,0,0,0,0,0,.1,0,0-.2-.1-.3-.1,0,0,0,0,0-.1,0,0,0,0,0,0h0s0-.2,0-.1c0,0,0,0,0,0,0,0,0,0,0,0h0s0,0,0,0c0,0-.1.3-.1.3h0s0,0,0,0h0s0,0,0,0h0c0,0,0,0,0,0,0,0,0,.1.1.2,0,0,0,0,0,0,0,0,0-.1,0-.1,0,0,0,.1,0,0,0,0,0,0,0,0,0,0,0,0,0,0,0,0,0,0,0,0,0,0,0,0,0,0,0,0,0,0,0,0,0,0,0,0,0,0,0,0,0,0,0,.1,0,0,0,0,0,0h0c0,0,0,.1,0,0s0,0,0,0c0,0,0-.3,0-.3,0,0,0,.3,0,.3,0,0,0,0,0,.1h0c0,0,0,0,0,0,0,0,0-.3,0-.3h0s0,0,0,0c0,0,0,0,0,0h0s0,0,0,0c0,0,0,.5,0,.5,0-.1,0-.1,0-.1,0,0,0,0,0,.1,0,0,0,0,0,0,0,0,0,0,0,0,0,0,0,0,0,0,0,0,0,0,0,0,0,0,0,0,0,0,0,0,0,.1,0,.2,0,0,0-.1,0-.1,0,.1,0,0,0,.1,0,0,0,0,0,0h0s0,0,0,0h0c0,0,0,0,0,0h0c0,0,0,0,0,0,0,0,.1-.2.1-.1,0,0,0,0,0,0,0,0-.1.1-.1.1,0,0,.2-.2.2-.1,0,0,0,0,0,0,0,0,0,0,0,.1h0s0,0,0,0c0,0,0,0,.1,0,0,0,0,.1,0,.2h0s0,0,0,0c0,0,0,0,0,0,0,0,0,0,0,0h0c0,.2,0,0,.1,0,0,0,0,0,0,0,0,0,0,0,0,.1,0,0,0,0,0-.1h0c0,.2,0,.2,0,.3,0,0,0,0,0,0,0,0,0,0,0,0,0,0,0,0,0,0h0s0,.2,0,.2c0,0,0,0,0-.1,0,0,0,0,0,.1h0Z"/>
  <path class="st0" d="M5.9,11.7h0c0,.1,0,.4.2.6,0-.5,0-1.1-.5-1.4.2-.1.2-.6,0-.6,0-.1-.1-.1-.1-.1,0,0,0,0,0,0,0,0,0,0,0,0,0,0,0,0-.1-.1,0,0,0,0,0,0,0,0,.2-.1.2-.1.2-.1.5-.3.7-.4,0,0,0,0,.1,0h0c0,0,.2.2.3.2.2.1.4.2.6.3,0,0,.1,0,.2,0,0,0-.1,0-.2-.1.1,0,.2,0,.4,0,0,0,0,0,.1,0,0,0,0,0,0-.1h0c0,0,.2,0,.2,0h0c0,0,0,0,0,.1h0s0,.1,0,.2c0,0,0,.3,0,.4,0,0,0,0,0,0v.2c0,0-.1.2-.1,0,0,.2,0,.4,0,.6-.1.6-.2,1.3-.3,1.9h0c0,.2,0,.4,0,.7,0,.2,0,.5.1.6,0,.2,0,.3,0,.6,0,0,0,.2,0,.1.1-.1,0-.1.2-.2h0c.2-.6.4-1.1.6-1.7,0-.4.2-.8.3-1.2,0-.4.1-.9.2-1.3,0,0,0-.1.1-.2,0-.2.2-.9.3-1.4-.1,0-.2,0-.3-.1,0,0,0,0,0,0-.2,0-.3-.1-.4-.2-.1,0-.3-.2-.4-.2,0,0,0,0,0,0,0-.1-1.1-.3-1.3-.4,0,0,0,0,0,0,0,0-.2-.1-.4-.2-.2.1-.5.2-.7.3-.2,0-.3.1-.4.2,0,0,0,.2-.1.2,0,0,0,0-.1.1-.2,0-.4.2-.2.1-.2.2-.4.3-.6.4h0c0,.1,0,.2,0,.3,0,0,0,.1,0,.2,0,.2,0,.2,0,.4,0,.1.2.4.2.4h0c0,.2,0,.3,0,.5,0,.5.3,1,.4,1.4,0,0,0,0,0-.1,0,.3,0,.5.1.8,0,0,0,.1,0,.1,0,0,0,0,0,.1h0c0,.1,0,.2,0,.2,0,0,0,0,0,0,0,0,0,0,0,.1h0s0,0,0,0c0,0,.3.3.3.3h0s0,0,0,0h0c0,.1,0,.2,0,.1,0,0,0,0,0,.1,0-.1,0-.2,0-.4,0,0,0,.1,0,.2,0,0,0,.2,0,.3s0,0,0,0c0,0,0,0,0,0,0,0,0,0,0-.1,0,0,0,.1,0,.1,0,0,0,0,0,.1,0,0,0,0,0,0,0,0,0,0,0,0,0,0,0-.1,0-.1,0,0,0,0,0,.1,0,0,0,0,0,0,0,0,0,0,0,.1,0,0,0,0,0,0,0,0-.3-.2-.2-.1,0,0,.3.2.2.2,0,0,0,0,0,0h0s0-.1,0,0c0,0-.3-.1-.2,0h0s0,0,0,0c0,0,0,0,0,0h0s0,0,0,0c0-.2.3,0,.3-.1,0,0,0,0,0,0,0,0,0,0,0-.1,0,0,0,0,0,0,0,0,0,0,0,0,0,0,0,0,0-.1,0,0,0,0,0,0,0,0,0-.1,0-.2,0,0,0-.1.1,0,0,0,0,0,0,0,0,0,0,0,0,0,0,0,0-.1,0-.1h0s0-.1,0-.2c0,0,0,0,0,0h0c0,0,0,0,0,0,0,0,0,0,0,0,0,0-.2-.3-.2-.3,0,0,0,0,0-.1,0,0,.2.4.2.3,0,0-.3-.4-.2-.5,0,0,0,0,0,0,0,0,0,0,0,0h0,0c0-.1,0-.3-.1-.3,0,0,0,0,.1,0h0s0,0,0,0c0,0,0-.1,0-.1h0q0,0,0,0h0c0,0-.1-.2,0-.3,0,0,0,0,0,0v-.3s0,0,0,0h0c0,0,0-.2.2-.2,0,0,0,0,0-.1,0,0,0,0,0,0,0,0,0,0,0-.1,0,0,0,0,0,0,0,0,0-.1,0-.2,0,0,0-.2-.1-.2,0,0,0,0,0-.1h0Z"/>
</svg>