<?xml version="1.0" encoding="UTF-8"?>
<svg id="Calque_2" data-name="Calque 2" xmlns="http://www.w3.org/2000/svg" xmlns:xlink="http://www.w3.org/1999/xlink" viewBox="0 0 462.37 463.59">
  <defs>
    <style>
      .cls-1 {
        fill: #969697;
      }

      .cls-2 {
        fill: #2d2d2d;
      }

      .cls-3 {
        fill: #fff;
      }

      .cls-4 {
        fill: #964545;
      }

      .cls-5 {
        fill: #601e1e;
      }

      .cls-6 {
        fill: url(#Dégradé_sans_nom);
      }

      .cls-7 {
        fill: #535453;
      }

      .cls-8 {
        fill: #eee;
      }

      .cls-9 {
        fill: #300c0c;
      }

      .cls-10 {
        fill: #c6c6c6;
      }

      .cls-11 {
        fill: #fefdfe;
      }

      .cls-12 {
        fill: #5c5d5d;
      }

      .cls-13 {
        fill: #c6c6c5;
      }

      .cls-14 {
        fill: #fdfdfd;
      }
    </style>
    <linearGradient id="Dégradé_sans_nom" data-name="Dégradé sans nom" x1="282.6" y1="-919.37" x2="282.89" y2="-1003.45" gradientTransform="translate(518.66 543.81) rotate(134.87) scale(.47 -.47)" gradientUnits="userSpaceOnUse">
      <stop offset="0" stop-color="#777"/>
      <stop offset="1" stop-color="#afb0b0"/>
    </linearGradient>
  </defs>
  <g id="Calque_2-2" data-name="Calque 2">
    <g id="Calque_8" data-name="Calque 8">
      <g id="Objet_génératif" data-name="Objet génératif">
        <path class="cls-3" d="M2.44,461.34l.52.51c.05.37-.2.31-.43.38-.48-.27-.29-.54-.08-.9Z"/>
        <g>
          <g>
            <path class="cls-1" d="M250.16,241.57l-6.98-5.32c-.3-.23-.58-.5-.89-.05.77-.69-7.03-7.01-7.06-6.3-.43-1.33-1.86-2.76-3.11-3.22-1.24-2.99-4.49-5.59-6.49-8.03-1.19-2.35-2.95-4.28-4.62-6.21-1.8-2.07-2.92-5.16-4.39-7.83l14.67-14.9c-1.37-2.29,9.7,4.7,7.65,3.22,6.8,4.87,19.05,14.16,23.22,20.89-1.36-1.27-3.72-2.06-5-4.12-7.58,5.23-13.77,11.36-19.25,19.21,3.95,4.06,7.87,7.73,12.76,10.7l16.95-17.03c-.01-.63-.26-1.04-.38-1.17-.13-.17-.12-.58.27-.58.89,1.01,2.49,2.39,3.03,3.68.64,1.56,2.52,4.24,2.01,6.04l-14.72,15.07c-3.12-1.01-5.47-2.38-7.66-4.05h-.03Z"/>
            <path class="cls-7" d="M423.78,49.89c11.41,3.64,23.43.05,28.88-10.8,5.19-10.34,1.6-23.2-8.74-29-8.23-4.61-18.49-3.09-25.43,2.68-7.62,6.34-9.15,15.77-6.93,25.07-2.71-.66-5.18-2.18-7.83-3.07-2.47-13.76,5.31-27.42,18.53-32.69,12.65-5.04,26.77-.62,34.66,10.3-.09.5-.91.63-.57-.3-3.01-2.49-5.48-6.07-9.92-6.28,12.97,8.72,17.33,25.17,8.96,38.24-6.28,9.81-17.3,14.6-28.94,11.82-1.64-1.04-2.57-3.68-4.04-5.67.68-.67,1.75,1,1.36-.3h0Z"/>
            <path class="cls-8" d="M262.15,213.84c2.13,1.98,3.44,4.83,5.37,7.01-.39,0-.41.41-.27.58.12.14.37.54.38,1.17l-16.95,17.03c-4.88-2.96-8.81-6.64-12.76-10.7,5.47-7.85,11.66-13.98,19.25-19.21,1.26,2.07,3.64,2.86,5,4.12Z"/>
            <g>
              <path class="cls-9" d="M301.36,159.23c-1.23-.25-2.62-2.15-3.52-3.08-.77-.79-3.03-.55-2.8-2.58-1.03.55-1.09.35-1.38.18-.58-.33-1.23-1.38-1.19-1.72.31,1.37-6.23-3.3-6.34-3.66-.52-1.56.8-2.3,1.02-3.14,1.67-6.29,6.54-1.96,3.91-5.44-.05-.41.43-.29.57-.41,4.83,2.78,10.49,5.01,14.29,9.6l2.64,3.2-7.18,7.05h0Z"/>
              <path class="cls-2" d="M278.78,216.95c-1.6-.44.57-2.28.07-2.99l-3.18-4.47c3.49-.63,6.35-3.18,7.19-6.65.38-.6.89-.14.74.63.28-.02,1.1-.02.72.38-.44.48.11.62.22.99.25.92-.85,2.84.42,3.67.36.24,1.37-.88,1.43-.19.03.42.06.84.53,1.04-1.38,1.32-2.46,3.7-4.44,4.43s-2.9,1.51-3.68,3.17h0Z"/>
              <path class="cls-2" d="M378.65,116.72c-1.45-.56.15-2,.02-2.92-.26-1.98-2.34-3.14-3.36-4.58,3.49-.51,6.51-3.16,7.39-6.58,1.06-.3.74,1.23,1.83,1.91-.02,1.43-1.3,3.17-.15,4.88.27.39,1.21-.6,1.45-.39.14.14.35.33.52.51-4.13,6-6.45,3.26-7.71,7.18h0Z"/>
              <path class="cls-2" d="M297.79,197.11c-.42-.52-.06-1.05-.03-1.45.04-.79-1.27-.64-1.53-1.03-.96-1.4-1.82-2.34-2.55-3.39,3.3-.36,6.15-2.76,7.37-5.82.47,1.77,2.15,3.07.87,5.6,1.73.31,2.4-.87,3.19.04-1.77,2.83-4.4,4.54-7.31,6.08v-.03Z"/>
              <path class="cls-2" d="M293.6,202.89c-1.25-2.39-4.27,2.32-5.44,1.32-1.4-1.2-2.6-2.59-3.54-3.9,3.11-.46,7.11-3.05,7.31-6.49,2.3-.14,1.08,4.44,1.84,4.93l2.26,1.43-2.44,2.7h0Z"/>
              <path class="cls-2" d="M306.92,187.94c-.7-1.72-1.41-3.49-1.87-5.45l4.08-3.16c.54-.42.72-1.22,1.3-1.13,2.51.36-1.04,4.53,2.67,2.62.8-.41,1,.4.98.85-1.13,2.49-4.34,5.24-7.18,6.27h.02Z"/>
              <path class="cls-2" d="M343.33,151.08c-3.12-4.84.09-1.05-2.49-5.56.08-.22.24-.4.46-.5.42,2.58,4.38-3.22,5.83-3.44,1.13,1.39.38,2.61.28,4.01,1.05.09,1.84.16,2.44.64-1.62,2.34-3.61,4.25-6.52,4.84Z"/>
              <path class="cls-9" d="M271.17,189.57c-.55,1.12-7.32,6.38-5.81,6.81-2.32-2.36-5.84-3.86-8-6.99-.38-.56-.62.02-1.06-.07-.84-.17-.79-1.3-1.21-1.28-1.12.06-2.02-1.03-2.59-1.56-.68-.6-3.38-.41-3.07-2.2-.34,1.93,2.26-6.59,4.94-6.56.98.02,1.86-1.37,3.1-.67,5.46,3.03,10.55,6.53,14.6,10.98-.84.84-1.43,1.16-.89,1.55v-.02Z"/>
              <path class="cls-9" d="M383.88,76.42c-.13-.37-.42-.17-.62-.16-.32.02-.53.64-.9.59-1.73-.24-2.14-2.73-3.17-2.81-1.37-.1-2.4-1.29-2.82-2.61-.58-.24-1.32.42-1.81-.16-.39-.46-.61-1.42-1.02-1.5-.48-.09-1.01.22-1.44-.16s-.16-1.42-.75-1.47l-1.75-.15c-.35-.03-.16-1.4-1-1.12-1.64.56-.94-1.2-.9-1.83.04-.77,1.1-1.32,1.19-2.05.45-3.17,5.26-6.01,8.67-3.43,4.57,3.43,9.55,6.15,12.62,10.61l-6.29,6.25v-.02Z"/>
              <path class="cls-9" d="M365.03,95.07c-1.24-2.46-1.4,1.96-4.94-3.95-.36-.6-.76.07-1.09-.02-.72-.2-.79-1.25-1.17-1.6-.53-.53-1.37.22-1.87-.34-.4-.45-.66-1.31-1.09-1.51-.36-.16-1.13.51-1.46-.11-.18-.32-.36-1.03-.5-1.24-1.33.84-1.81-.88-2.31-1.06-1.04.24-1.56-.32-1.67-.81-.22-1.09,1.14-1.96,1.39-2.59.81-2.04,1.62-4.21,4.12-3.98.29.03.51-1.42.98-1.25.27.09.62.48,1.32-.28,5.43,3.3,10.81,6.83,15.12,11.44-.81.81-1.51,1.25-.89,1.59-1.9,2-3.75,4.05-5.93,5.73v-.02Z"/>
              <path class="cls-9" d="M283.57,177.04c-.17-.35-.59-.67-.94-.48-1.62.86-2.95-2.58-3.72-2.89-2.16-.84-6.51-4.25-7.91-5.16l-1.98-1.28c-.45-.29-1.47-.48-1.51-.92-.03-.33,2.23-4.45,2.23-4.47l1.41-2.04c.33-.47,1.14.48,1.39-.1,1.37-2.18,3.59-.89,5.13.13,4.91,3.21,9.46,6.23,12.65,10.63l-6.76,6.58h.02Z"/>
              <path class="cls-9" d="M356,104.27c-2.39-2.86-2.9.18-5.1-4.14-.21-.41-.73.32-1.01.14-.67-.42-1.02-.91-1.09-1.97.67,1.8-8.02-4.02-7.09-3.85l-1.32-.24c-.71-.12-.5-1.42.08-2.36.45-.72,1.48-.95,1.32-2.12-.32-2.22,5.91-4.03,5.79-4.09,5.47,2.63,10.57,6.64,15.09,10.99-.31.91-1.38,1.16-.79,1.79l-5.87,5.83v.02Z"/>
              <path class="cls-9" d="M328.64,131.75c-3.25-2.89-6.12-4.48-8.41-6.05l-2.45-1.7c-.7-.49-1.72-1.34-2.3-1.64-.83-.26-3.41-.97-2.63-2.02.56-.76.33-.99.22-1.3.46,1.21,2.59-5.11,4.44-5,.73.05,1.8-.76,2.89-1.25,5.65,3.45,11.7,7.03,15.72,12.36-.16.16-.6-.03-.83.18l-6.67,6.41h.02Z"/>
              <path class="cls-9" d="M274.35,186.31c-1.05-1.04-4.19-1.29-4.35-3.53-2.19.9-2.45-2.29-3.51-2.17-1.33.16-1.86-1.53-2.46-1.78-1.39.4-1.33-1.28-2.35-1.32-1.4-.05-2.46-1.74-3.23-2.47.81-.7.36-1.23.41-1.52.1-.56,1.15-.62,1.51-1.18s-.09-1.35.29-1.87c.09-.12,4.97-2.72,4.33-2.66,3.11-.28,15.66,9.34,15.7,11.14,0,.43-.19,1.21-.48,1.55-1.78,2.11-3.94,3.87-5.88,5.82h0Z"/>
              <path class="cls-9" d="M337.73,122.62c-3.52-4.53-3.65.02-5.1-4.82-.95.17-1.35.55-1.65.23-.45-.5-1.15-.53-1.1-1.79-.7.08-1.09.35-1.42.06-.58-.5-1.47-1.05-1.17-1.76-1.44,1.05-1.72-.74-2.47-1.31s-3.62-.6-2.8-1.99l1.57-2.67c.7-1.18,1.15-3.83,2.96-3.64,1.07.11,1.37-.62,2.51-1.42,8.07,5,9.84,5.59,15.69,12.17l-7.04,6.93h.02Z"/>
              <path class="cls-9" d="M310.47,150.06l-3.44-2.73c-.81-.65-2.46-.89-2.94-2.72-.09-.35-.76.37-1.03.2-.56-.38-1.03-.88-1.04-1.98-1.06.13-1.38.43-1.73.1-.48-.48-1.32-1.11-1.14-1.81-.9.47-1.05.32-1.32.22-.67-.24-.51-1.53-1.07-1.29-1.29.54-1.84-.71-1.8-1.36.22-3.69-.5.25,1.5-4,.58-1.23,3.4-2.31,5.75-3.68,3.14,1.79,14.75,8.95,15.04,12.32l-6.78,6.74v-.02Z"/>
              <path class="cls-4" d="M275.69,209.49c-2.07-2.91-4.18-5.86-6.44-8.68l7.31-7.19c2.38,2.88,4.78,5.78,6.32,9.21-.84,3.47-3.7,6.02-7.19,6.65Z"/>
              <path class="cls-4" d="M305.7,164.26l7.04-7.02c2.07,2.84,5.3,5.08,6.08,9.22.54,2.84-3.87,7.36-6.85,6.01-2.94-1.71-4.23-5.84-6.27-8.22Z"/>
              <path class="cls-4" d="M375.3,109.23l-6.2-8.65,7.25-7.23c2.32,2.95,4.84,5.79,6.34,9.28-.87,3.44-3.91,6.08-7.39,6.58h0Z"/>
              <path class="cls-4" d="M393.52,90.94l-6.28-8.73,7.07-6.99c2.56,3.03,5.52,5.87,6.61,9.85-1.32,3-4.09,5.56-7.39,5.87Z"/>
              <path class="cls-4" d="M284.62,200.32l-6.28-8.65,7.24-7.2c2.06,2.91,5.51,5.75,6.35,9.36-.21,3.44-4.2,6.03-7.31,6.49Z"/>
              <path class="cls-4" d="M322.07,163.88c-.99-.16-1.91-.8-2.69-1.95l-4.63-6.86c1.54-.98,6.16-6.81,7.4-6.71,2.1,2.6,4.33,5.36,5.93,8.29.82,2.89-3.53,6.43-6,7.24h0Z"/>
              <path class="cls-4" d="M293.67,191.24l-6.23-8.75,7.08-6.99c2.54,3.08,5.46,5.91,6.53,9.91-1.22,3.07-4.07,5.48-7.37,5.82h0Z"/>
              <path class="cls-4" d="M350.52,136.12c-.29-.06-.45-.03-.55.29l-2.2-.26-5.98-8.17,6.89-6.79c.19-.11.51.03.63-.12,1.97,2.97,9.03,8.53,4.08,12.89-1.03.91-2.13,1.35-2.87,2.17h0Z"/>
              <path class="cls-4" d="M368.59,117.68c-.66.33-1.37.43-2.07.62-2.3-2.75-4.4-5.7-6.5-8.63l7.24-7.15c2.06,2.83,5.21,5.49,5.99,9.28.58,2.86-2.58,4.85-4.66,5.89h0Z"/>
              <path class="cls-4" d="M341.31,145.03c-.22.1-.38.28-.46.5-.4-.22-.9-.02-1.77.03l-6.31-8.6c2.76-2.01,4.5-5.21,7.54-6.81,2.55,3.85,8.49,8.31,4.3,12.44-1.12,1.09-2.05,1.91-3.3,2.46h0Z"/>
              <path class="cls-5" d="M341.8,127.97c-1.27-1.75-3.73-3.16-4.06-5.37l7.04-6.93c1.61,1.82,3.2,3.35,4.54,5.38-.12.15-.43,0-.63.12l-6.89,6.79Z"/>
              <path class="cls-5" d="M305.7,164.26c-1.4-1.62-3.55-2.95-4.34-5.03l7.18-7.05c1.46,1.77,2.9,3.29,4.19,5.06l-7.04,7.02h0Z"/>
              <path class="cls-5" d="M314.74,155.06c-1.12-1.67-3.87-2.75-4.28-4.99l6.78-6.74c2.09.86,3.49,3.28,4.9,5.02-1.23-.09-5.86,5.73-7.4,6.71Z"/>
              <path class="cls-5" d="M387.25,82.2c-.35-.49-6.56-5.68-3.36-5.79l6.29-6.25c1.39,1.47,2.87,3.54,4.13,5.05l-7.07,6.99Z"/>
              <path class="cls-5" d="M369.11,100.58c-1.31-1.83-3.97-3.03-4.07-5.5,2.18-1.67,4.03-3.74,5.93-5.73,1.22-2.38,4.34,2.67,5.4,4.01l-7.25,7.23h0Z"/>
              <path class="cls-5" d="M287.43,182.47c-1.17-1.64-3.11-2.76-4.14-4.77.2-.35.27-.54.28-.66l6.76-6.58c1.18,1.62,2.94,3.54,4.17,5.02l-7.08,6.99Z"/>
              <path class="cls-5" d="M332.76,136.95c-1.26-1.72-3.47-3.13-4.12-5.2l6.67-6.41c.22-.22.67-.02.83-.18,1.32,1.75,2.95,3.15,4.16,4.98-3.05,1.6-4.78,4.8-7.54,6.81Z"/>
              <path class="cls-5" d="M278.35,191.66c-1.32-1.82-3.4-3.22-4-5.36,1.94-1.95,4.09-3.7,5.88-5.82,1.02-2.75,4.79,3.14,5.37,3.96l-7.24,7.2h0Z"/>
              <path class="cls-5" d="M269.24,200.81c-1.17-1.45-2.57-3.11-3.88-4.43-1.52-.43,5.27-5.68,5.81-6.81.23.05.64-.64,1.08-.82,2.02,1.25,2.98,3.29,4.31,4.87l-7.31,7.19h0Z"/>
              <path class="cls-5" d="M360.01,109.66c-1.31-1.82-3.68-3.08-4.01-5.39l5.87-5.83c1.15-2.4,4.67,3.07,5.39,4.07,0,0-7.24,7.15-7.24,7.15Z"/>
              <g>
                <path class="cls-2" d="M411.39,83.96c-.33-.4-.53.14-.9.36-.54.29-1.71,1.02-2.04,1.25-1.93,1.28-1.54.2-1.64,1.29-.14,1.53-1.41,2.75-1.95,3.97-.71-.6-1.63-.58-2.75-.37-.59-1.56.34-3.1-.44-4.37-.25-.57.16-1.68-.75-1.03-1.08-3.98-4.04-6.84-6.61-9.85-1.27-1.5-2.74-3.56-4.13-5.05-3.06-4.47-8.05-7.18-12.62-10.61-3.42-2.57-8.22.27-8.67,3.43-.1.73-1.16,1.27-1.19,2.05-.03.64-.74,2.4.9,1.83.82-.28.65,1.09,1,1.12l1.75.15c.59.05.31,1.11.75,1.47s.96.07,1.44.16c.43.07.63,1.04,1.02,1.5.49.58,1.22-.07,1.81.16.42,1.32,1.44,2.5,2.82,2.61,1.04.08,1.44,2.57,3.17,2.81.37.05.58-.56.9-.59.2,0,.49-.21.62.16-3.19.1,3.01,5.3,3.36,5.79l6.28,8.73c.43.58.99,1.07,1.49,1.92l.72,1.25c.2.35.9.66,1.48-.47.76-.36.71.78,1.06.65,1.63-.61,2.16-1.5,2.89-1.37.35.06.69.5.94.85-.74,1.31-2.81,1.83-4.08,2.57-1.99,4.18-5.21,7.85-9.53,9.45-.42,1.49-1.48,2.79-2.16,3.77l-.52-.51c-.23-.21-1.19.78-1.45.39-1.15-1.71.13-3.45.15-4.88-1.11-.68-.79-2.2-1.83-1.91-1.49-3.5-4.02-6.34-6.34-9.28-1.06-1.34-4.17-6.4-5.4-4.01-.63-.33.08-.77.89-1.59-4.31-4.61-9.68-8.13-15.12-11.44-.7.76-1.06.38-1.32.28-.47-.17-.7,1.29-.98,1.25-2.49-.23-3.3,1.94-4.12,3.98-.25.62-1.6,1.5-1.39,2.59.1.51.64,1.06,1.67.81.51.19.99,1.91,2.31,1.06.14.21.31.91.5,1.24.34.62,1.11-.05,1.46.11.41.19.69,1.05,1.09,1.51.51.58,1.33-.18,1.87.34.36.36.45,1.4,1.17,1.6.33.1.74-.58,1.09.02,3.54,5.9,3.7,1.49,4.94,3.95.1,2.48,2.76,3.67,4.07,5.5l6.2,8.65c1.03,1.44,3.09,2.6,3.36,4.58.13.92-1.47,2.36-.02,2.92-.37,1.15-2.33,2.75-3.04,3.73-3.23-2.24.6-3.6-1.62-6.09-.44.23-5.74,5.9-5.39,3.31,2.07-1.03,5.24-3.02,4.66-5.89-.76-3.79-3.93-6.46-5.99-9.28-.73-.99-4.23-6.46-5.39-4.07-.59-.64.48-.89.79-1.79-4.54-4.36-9.63-8.36-15.09-10.99.12.05-6.12,1.88-5.79,4.09.17,1.16-.86,1.4-1.32,2.12-.58.94-.79,2.24-.08,2.36l1.32.24c-.93-.17,7.76,5.67,7.09,3.85.06,1.06.42,1.55,1.09,1.97.28.18.81-.56,1.01-.14,2.21,4.31,2.71,1.28,5.1,4.14.34,2.31,2.71,3.58,4.01,5.39,2.1,2.92,4.2,5.88,6.5,8.63.89,1.06,2.08,3.05,2.86,4.37.45.77-.66,2.32.19,3.08-1.17,2.57-5.26,6.65-8.24,7.31-.35,1.19-1.25,2.49-1.79,2.89-.26-1.02-1.44-.03-2.14-.52-.7-.49-.33-1.37-.36-1.83-.05-.7-1.21-1.35-1.7-.82-1.34,1.45-2.69,3.8-4.83,3.32.74-.82,1.84-1.26,2.87-2.17,4.97-4.35-2.11-9.91-4.08-12.89-1.34-2.03-2.93-3.57-4.54-5.38-5.85-6.57-7.62-7.16-15.69-12.17-1.13.8-1.44,1.52-2.51,1.42-1.81-.19-2.27,2.45-2.96,3.64l-1.57,2.67c-.83,1.4,2.04,1.41,2.8,1.99s1.03,2.36,2.47,1.31c-.3.71.59,1.26,1.17,1.76.33.29.72.02,1.42-.06-.05,1.26.65,1.29,1.1,1.79.29.33.69-.05,1.65-.23,1.45,4.82,1.59.29,5.1,4.82.34,2.2,2.79,3.62,4.06,5.37l5.98,8.17,2.2.26c.31,1.39-.44,2.66.67,3.5,2.67,2.03,3.73-2.8,6.32-.69-.85,1.63-3.27,1.47-4.34,3.03l-2.76,4c-.6-.47-1.39-.56-2.44-.64.12-1.4.85-2.62-.28-4.01-1.45.22-5.42,6.03-5.83,3.44,1.25-.54,2.17-1.36,3.3-2.46,4.21-4.12-1.75-8.59-4.3-12.44-1.21-1.83-2.85-3.22-4.16-4.98-4.02-5.33-10.08-8.92-15.72-12.36-1.09.49-2.16,1.3-2.89,1.25-1.86-.12-4,6.2-4.44,5,.12.31.34.55-.22,1.3-.78,1.05,1.81,1.74,2.63,2.02.59.3,1.6,1.15,2.3,1.64l2.45,1.7c2.28,1.58,5.14,3.16,8.41,6.05.65,2.07,2.86,3.48,4.12,5.2l6.31,8.6c.88-.06,1.37-.25,1.77-.03,2.57,4.5-.63.72,2.49,5.56-1.54,4.08-4.64,7.76-9.25,9.17-.51,2.59-2.39,4.5-3.91,5.85.49-.63-1.08-.73-1.05-1.1.24-2.02.81-4.4.32-6.57,1.06-.71.19-.83-.76-.4-.05-.5.27-1.59-.62-1.39-1.59-2.93-3.82-5.68-5.93-8.29-1.41-1.74-2.81-4.16-4.9-5.02-.28-3.36-11.91-10.51-15.04-12.32-2.35,1.36-5.19,2.45-5.75,3.68-2,4.25-1.28.3-1.5,4-.04.65.51,1.91,1.8,1.36.57-.23.4,1.06,1.07,1.29.28.11.44.24,1.32-.22-.19.69.65,1.34,1.14,1.81.34.34.67.03,1.73-.1.01,1.09.47,1.6,1.04,1.98.28.19.94-.55,1.03-.2.48,1.83,2.13,2.07,2.94,2.72l3.44,2.73c.41,2.25,3.15,3.33,4.28,4.99l4.63,6.86c.78,1.15,1.7,1.8,2.69,1.95.58,1.25.94,2.78,2.58,4.29l3.93-2.57c.59.25.49,1,1.04,1.12-3.46,3.9-1.9-1.22-6.34,6.08-3.28-1.12-2.19-3.07-2.99-3.6-1.53-.99-1.86,2.1-5.24,3.62-.74.33-1.02.74-1,1.13.04.59.81.88.43,1.51-.65,1.06.68,1.45,1.26,1.45.83.02,1.42-.64,2.31-1.15l1.88-1.07c.29-.17.73.65,1.07.73-.95,1.91-3.5,1.67-4.8,3.44l-2.07,2.81c.03-.45-.18-1.26-.98-.85-3.7,1.91-.16-2.26-2.67-2.62-.59-.08-.76.71-1.3,1.13l-4.08,3.16c.46,1.96,1.16,3.72,1.87,5.45-.32,1.24-1.19,2.07-1.83,3.08-.78-.9-1.45.27-3.19-.04,1.27-2.52-.41-3.82-.87-5.6-1.06-4-3.99-6.84-6.53-9.91-1.23-1.49-2.99-3.4-4.17-5.02-3.19-4.39-7.74-7.42-12.65-10.63-1.55-1.01-3.77-2.3-5.13-.13-.26.56-1.07-.37-1.39.1l-1.41,2.04s-2.26,4.14-2.23,4.47c.04.44,1.06.63,1.51.92l1.98,1.28c1.4.91,5.75,4.33,7.91,5.16.76.3,2.1,3.76,3.72,2.89.36-.19.77.13.94.48-.02.11-.09.3-.28.66,1.03,2.03,2.97,3.13,4.14,4.77l6.23,8.75c.75,1.05,1.6,1.98,2.55,3.39.26.38,1.58.24,1.53,1.03-.03.4-.39.92.03,1.45-.31,1.22-.96,2.23-1.74,3.08l-2.26-1.43c-.76-.48.45-5.08-1.84-4.93-.84-3.62-4.29-6.45-6.35-9.36-.58-.82-4.34-6.71-5.37-3.96.29-.35.49-1.1.48-1.55-.04-1.79-12.58-11.43-15.7-11.14.64-.05-4.24,2.54-4.33,2.66-.38.52.1,1.29-.29,1.87s-1.42.62-1.51,1.18c-.05.28.39.82-.41,1.52.76.73,1.82,2.43,3.23,2.47,1.03.03.96,1.72,2.35,1.32.62.25,1.13,1.94,2.46,1.78,1.05-.13,1.3,3.07,3.51,2.17.16,2.24,3.3,2.49,4.35,3.53.61,2.13,2.68,3.53,4,5.36l6.28,8.65c.94,1.31,2.14,2.69,3.54,3.9,1.16,1,4.2-3.7,5.44-1.32-1.26,1.4-2.74,1.79-4.55,3.05-.93.65-1.26,2.57-2.14,3.41-.47-.19-.5-.62-.53-1.04-.05-.7-1.06.43-1.43.19-1.25-.82-.17-2.75-.42-3.67-.11-.37-.66-.51-.22-.99.37-.41-.44-.4-.72-.38.15-.77-.36-1.22-.74-.63-1.55-3.44-3.95-6.34-6.32-9.21-1.32-1.59-2.29-3.62-4.31-4.87-.43.19-.84.88-1.08.82-.54-.4.04-.72.89-1.55-4.06-4.45-9.15-7.94-14.6-10.98-1.24-.69-2.12.69-3.1.67-2.68-.03-5.28,8.49-4.94,6.56-.32,1.8,2.4,1.61,3.07,2.2.58.52,1.48,1.61,2.59,1.56.41-.02.37,1.11,1.21,1.28.44.09.68-.49,1.06.07,2.16,3.13,5.68,4.63,8,6.99,1.3,1.33,2.71,2.98,3.88,4.43,2.26,2.82,4.37,5.77,6.44,8.68l3.18,4.47c.5.71-1.67,2.55-.07,2.99-1.67,3.51-4.89,5.81-8.25,7.58-.54-1.29-2.14-2.67-3.03-3.68-1.9-2.18-3.23-5.02-5.37-7.01-4.17-6.72-16.43-16.01-23.22-20.89,1.48-4.19,4.62-7.58,9.16-8.69,1.21-4.51,4.38-7.96,8.93-9.04,1.24-4.34,4.29-7.9,9.03-9.02,1.34-4.58,4.51-8.14,9.27-9.13.64-5.14,4.97-6.95,8.51-9.73,2.6-2.04,3.2-7.19,7.21-7.54,2.63,3.48-2.24-.85-3.91,5.44-.22.84-1.55,1.57-1.02,3.14.12.36,6.67,5.04,6.34,3.66-.03.34.62,1.39,1.19,1.72.3.18.36.36,1.38-.18-.22,2.01,2.04,1.78,2.8,2.58.9.93,2.3,2.83,3.52,3.08.79,2.08,2.94,3.41,4.34,5.03,2.04,2.38,3.32,6.51,6.27,8.22,2.98,1.34,7.38-3.18,6.85-6.01-.77-4.13-4.01-6.38-6.08-9.22-1.3-1.77-2.73-3.3-4.19-5.06l-2.64-3.2c-3.8-4.6-9.46-6.83-14.29-9.6.27-.26,1.41-.1,1.68-.81,1.66-4.44,4.55-7.88,9.14-8.81,1.13-4.63,4.45-7.94,9.14-9.27,1.2-4.82,4.63-7.82,9.07-9.15,1.28-4.8,4.67-7.89,9.04-9.04,1.21-4.56,4.44-7.96,9.01-9,1.19-4.66,4.61-8.01,9.2-9.28,1.09-4.47,4.27-7.77,8.87-9.04,1.39-4.42,4.38-7.92,9.12-8.98,1.2-4.71,4.5-7.95,9.1-9.18,1.27-4.49,4.26-8.08,9.15-9.12.91-4.92,4.5-7.03,8.26-9.4,1.97-1.25,3.03-4.47,6.52-3.83,1.35.25,3.53-.13,4.84.3,2.66.89,5.13,2.41,7.83,3.07,5.92,4.78,7.24,7.33,12.22,12.06.39,1.29-.68-.37-1.36.3,1.47,1.99,2.42,4.64,4.04,5.67,11.65,2.78,22.67-2.01,28.94-11.82,8.3-12.95,3.94-29.4-9.03-38.12,4.45.19,6.91,3.78,9.92,6.28-.34.93.48.82.57.3,6.86,9.49,7.19,22.42,1.27,32.02-6.69,10.85-18.34,16.18-30.93,13.89,2.92,11.35-2.79,10.34-3.13,11.88-.97,4.48-5.2,6.08-7.97,8.47-1.97,1.7-2.14,4.69-4.77,5.34h0Z"/>
                <g>
                  <path class="cls-2" d="M402.13,93.77c-.26-.36-.61-.8-.94-.85-.74-.11-1.26.77-2.89,1.37-.36.13-.3-1-1.06-.65-.57,1.15-1.28.84-1.48.47l-.72-1.25c-.5-.87-1.07-1.35-1.49-1.92,3.3-.31,6.05-2.88,7.39-5.87.91-.67.51.45.75,1.03.78,1.28-.14,2.81.44,4.37,1.12-.22,2.04-.24,2.75.37-.57,1.31-2.1,1.79-2.74,2.94l-.02-.02Z"/>
                  <path class="cls-2" d="M369.57,125.75c-.86-.77.26-2.33-.19-3.08-.77-1.32-1.97-3.31-2.86-4.37.71-.18,1.42-.29,2.07-.62-.35,2.59,4.94-3.08,5.39-3.31,2.23,2.49-1.6,3.85,1.62,6.09-2.88,3.91-4.1,1.07-6.02,5.3v-.02Z"/>
                  <path class="cls-2" d="M322.07,163.88c2.46-.8,6.81-4.35,6-7.24.89-.2.56.89.62,1.39.95-.44,1.83-.31.76.4.48,2.16-.08,4.54-.32,6.57-.03.37,1.54.47,1.05,1.1l-.55.62c-.55-.12-.45-.88-1.04-1.12l-3.93,2.57c-1.65-1.51-1.99-3.05-2.58-4.29Z"/>
                  <path class="cls-2" d="M356.96,139.22c-2.59-2.11-3.64,2.73-6.32.69-1.11-.84-.36-2.11-.67-3.5.1-.31.25-.36.55-.29,2.13.47,3.48-1.88,4.83-3.32.49-.52,1.65.12,1.7.82.03.45-.33,1.33.36,1.83s1.88-.5,2.14.52c-.04,1.5-1.97,2.07-2.58,3.25Z"/>
                  <path class="cls-2" d="M320.97,175.42c-.34-.07-.77-.89-1.07-.73l-1.88,1.07c-.9.51-1.47,1.16-2.31,1.15-.59-.02-1.91-.39-1.26-1.45.39-.62-.39-.92-.43-1.51-.03-.4.26-.8,1-1.13,3.37-1.52,3.71-4.61,5.24-3.62.81.52-.29,2.48,2.99,3.6-.59.97-1.82,1.66-2.29,2.64l.02-.02Z"/>
                  <path class="cls-2" d="M406.81,86.86c-.09-1.21.4-1.73,2.12-2.19.38-.1.79-1.09,1.33-1.39.38-.2.8.3,1.14.69-1.53.39-3.29,2.04-4.58,2.89h0Z"/>
                  <path class="cls-9" d="M392.08,68.11c-1.45-.24-2.64-2.74-3.87-3.3-.87-.41-11.92-8-11.52-7.15-.29-.65.49-3.23.45-3.21,4.33-1.91-1.71.17,2.19-2.55.36-.26.49-1.51,1.24-1.48.28,0,.73.37,1.14-.03.44-.43.5-1.18.92-1.21.27-.02.66,0,1.37-.2,5.4,3.25,10.53,6.64,14.82,11.05-.03.4.26.79.44,1l-7.18,7.09h0Z"/>
                  <path class="cls-9" d="M401.18,58.94c-.69-.99-3.48-1.2-3.46-3.99-1.06.24-1.37.54-1.71.28-.41-.3-1.03-1.12-1.22-1.59-.16-.39-1.28.22-1.54-.24-.15-.26-.39-1.45-.71-1.42-.96.11-2.32-.38-2.75-1.65-.14-.44-1.19.39-1.56-.26-.17-.31-.33-1.07-.54-1.2-.55.11-1.29.56-1.39-.08-.06-.35-.48-.58-.76-.79-1.57,1.02,3.59-5.83,1.91-4.89,1.96-1.1.37-.82,5.48-3.24,5.62,3.29,11.62,6.77,15.49,12.01l-7.22,7.08h0Z"/>
                  <path class="cls-9" d="M374.28,85.92c-.47-.79-1.03-.58-1.54.04-1.21-.85-1.64-3.16-2.71-3.29l-1.66-.2c-.43-.05-.57-1.29-1.16-1.81-.5-.44-1.24.27-1.74-.26-.46-.5-.87-1.05-.92-1.59,6.15,6.9-12.24-9.88-4.04-1.67-3.19-3.2-.94,1.99-2.29-1.68.16.43.58-4.6,1.79-3.47-.26-1.87,5.11-4.67,4.24-4.76,3.67.35,14.82,8.72,15.92,10.55l.89,1.51-6.76,6.62h0Z"/>
                  <path class="cls-9" d="M292.27,168.38c.63.75-5.34-4.72-7.25-5.5-.94-.39-1.71-1.63-2.41-1.83-.74-.22-1.9-.24-2.11-1.94-.59.12-.98.34-1.35.13-.53-.28-.52-1.38-.83-1.34-3.87.58.73-5.38,1.87-6.95-1,1.38,2.99-1.6,3.55-1.54,2.43.21,12.82,7.93,15.69,11.92l-7.15,7.06h-.02Z"/>
                  <path class="cls-9" d="M346.87,113.45c-1.34-1.64-3.96-1.57-5.08-4.05-.22-.49-.99.27-1.3-.08-.46-.5-.62-1.29-.9-1.76-.91,1.43-5.23-3.78-4.33-1.78-.14-.32-.21-.93-.78-1.44-.43-.37-1.19.29-1.47-.1-.37-.51-.59-1.06-.82-1.29-1.06.24-1.84-.09-.93-1.25.98-2.26,4.08-7.43,7.39-6.48,6.13,1.76,10.49,6.85,14.98,10.45-.39,1.15-1.39,1.27-.82,1.93l-5.9,5.85h0Z"/>
                  <path class="cls-9" d="M319.59,140.94c-6.47-5.7-1.49-1.49-6.39-4.77l-2.59-1.75-6.12-4.02c-.6-.3-1.96.3-.9-.97.41-.59.25-1.03.29-1.32.07-.41,1.02-.44,1.32-.83.98-1.25,1.42-4.27,3.07-4.01.68.11,2.25-1.21,2.95-1.26,5.6,3.15,11.95,6.87,15.31,12.25l-6.94,6.67h0Z"/>
                  <path class="cls-9" d="M255.96,204.32c1.02.81-9.69-7.13-7.24-6.53-.28-.07-.6.13-1.53.29,2.71-.27-6.43-4.6-6.09-4.15-1.01-6.63,7.14-7.8,6.69-8,5.38,2.35,10.83,6.76,15.23,11.02-.4.67-1.27,1.36-1,1.82-1.74,1.84-4.03,3.96-6.07,5.55h0Z"/>
                  <path class="cls-4" d="M396.32,73.14l7.13-7.05c2.33,2.67,5.46,5.4,6.16,9.37.49,2.76-4.25,6.66-6.85,6.01-2.87-2.01-4.22-5.86-6.43-8.32h0Z"/>
                  <path class="cls-4" d="M378.14,91.4l7.09-7.03c2.27,2.83,5.62,5.35,6.18,9.27.41,2.87-4.14,6.74-6.81,6.04-2.76-2.09-4.33-5.76-6.47-8.28h0Z"/>
                  <path class="cls-4" d="M350.89,118.8c2.84-1.97,4.43-5.36,7.54-6.93,2.03,2.91,5.62,5.45,5.81,9.57.12,2.65-4.29,6.11-6.73,5.71-2.8-2.22-4.48-5.82-6.6-8.34h0Z"/>
                  <path class="cls-4" d="M323.88,145.94c2.62-2.05,4.47-4.97,7.36-6.7,2.03,3.12,5.3,5.31,5.81,9.37.32,2.53-4.78,6.94-6.94,5.59-3.18-1.98-4.32-5.96-6.21-8.26h0Z"/>
                  <path class="cls-4" d="M405.45,63.97l7.11-7.02c2.18,3,5.58,5.51,6.01,9.63.27,2.59-4.3,6.58-6.63,5.7-3.06-1.84-4.18-5.98-6.49-8.32Z"/>
                  <path class="cls-4" d="M296.51,173.4l7.12-7.03c2.74,3.72,9.08,8.79,4.44,12.87-1.16,1.02-3.41,3.81-5.3,2.46-2.76-1.97-4.16-5.82-6.26-8.3Z"/>
                  <path class="cls-4" d="M260.67,209.6l6.78-6.81c2.02,2.93,5.15,5.3,5.98,9.44.46,2.28-4.02,6.76-6.05,5.58-1.57-.93-7.48-8.6-6.72-8.21h0Z"/>
                  <path class="cls-4" d="M414.27,55l5.64-5.52c.65.27.74.73,1.04.68,2.01,2.62,4.28,5.62,5.03,9.38.36,1.84-3.34,4.35-5.15,4.19-2.64-2.29-4.24-6.22-6.54-8.73h-.02Z"/>
                  <path class="cls-5" d="M296.51,173.4l-4.24-5.03,7.15-7.06c1.26,1.75,3.5,2.9,4.19,5.06l-7.12,7.03h0Z"/>
                  <path class="cls-5" d="M405.45,63.97c-1.56-1.55-3.38-3.75-4.26-5.02l7.22-7.08c1.28,1.74,3.57,2.88,4.16,5.09l-7.11,7.02h0Z"/>
                  <path class="cls-5" d="M396.32,73.14c-1.57-1.74-3.31-3.26-4.24-5.02l7.18-7.09c1.47,1.6,3.47,2.96,4.19,5.06,0,0-7.13,7.05-7.13,7.05Z"/>
                  <path class="cls-5" d="M350.89,118.8c-1.42-1.68-3.56-3.12-4.01-5.34l5.9-5.85c.24.06.63-.63,1.05-.81,2.11,1.31,3.34,3.28,4.6,5.07-3.1,1.57-4.69,4.96-7.54,6.93Z"/>
                  <path class="cls-5" d="M378.14,91.4c-1.58-1.88-4.05-3.26-3.86-5.47l6.76-6.62c1.05,1.77,3.62,2.95,4.19,5.06l-7.09,7.03Z"/>
                  <path class="cls-5" d="M323.88,145.94c-1.73-1.41-3.37-3.52-4.3-5l6.94-6.67c1.07,1.7,4.01,2.75,4.7,4.98-2.87,1.73-4.74,4.65-7.36,6.7h.02Z"/>
                  <path class="cls-5" d="M260.67,209.6c-2.11-1.1-2.94-3.88-4.71-5.28,2.05-1.59,4.33-3.71,6.07-5.55.24,0,.63-.61,1.15-.91,1.8,1.44,3.09,3.21,4.27,4.92l-6.78,6.81Z"/>
                  <path class="cls-5" d="M414.27,55c-1.43-1.57-2.94-3.09-4.24-5.03l5.6-5.95c2.3,1.85,4.68,3.54,5.3,6.15-.3.05-.38-.42-1.04-.68l-5.64,5.52h0Z"/>
                </g>
              </g>
            </g>
          </g>
          <g>
            <path class="cls-13" d="M2.95,461.87l-.52-.51c2.86-4.62,8.47-7.4,11.09-12.17.33-.22.9-.44,1.16-.7.56.08.05.43-.39,1.33,3.24-2.42,6.58-3.72,10.54-6.14l167.39-102.19c11.02-6.73,12.81-8.33,17.88-19.7,12.59-28.23,22.71-57.16,33.06-85.53l6.98,5.32-25.07,68.44c-3.1,8.47-6.56,16.24-10.75,24.16-2.75,5.21-6.63,9-12.16,12.21-66.73,38.66-132.55,78.39-199.22,115.48h0Z"/>
            <path class="cls-12" d="M221.01,212.44c1.67,1.93,3.43,3.87,4.62,6.21l-70.96,28.64c-7.54,3.04-14.62,6.22-21.87,9.85-4.03,2.02-6.51,4.97-8.91,8.91l-84.55,139.06c-9.09,14.95-18.41,29.39-25.84,44.04-2.62,4.76-8.22,7.54-11.08,12.16-.22.36-.4.63.08.9-.85.27-.99,1.78-2.52,1.27.49-1.47,1.49-1.87,2.16-3.04l116.62-204.52c2.17-3.82,5.6-5.81,9.21-7.63,6.74-3.4,13.19-6.15,20.19-8.76l72.85-27.13-.02.04Z"/>
            <path class="cls-6" d="M25.79,437.24l-11.12,11.24c-.26.26-.83.48-1.16.7,7.42-14.64,16.75-29.1,25.84-44.04l84.55-139.06c2.4-3.94,4.87-6.89,8.91-8.91,7.24-3.65,14.32-6.81,21.87-9.85l70.96-28.64c1.99,2.44,5.26,5.05,6.49,8.03l-117.48,119.26-43.89,44.98-18.17,18.58-26.78,27.74v-.02Z"/>
            <path class="cls-11" d="M14.67,448.48l11.12-11.24c.53.35,1.25.29,2.01-.19l151.1-93.82c7.45-4.62,14.69-7.84,21.48-13.02,2.92-2.93,4.43-7.72,6.24-11.89l35.68-82.11c.31-.45.59-.18.89.05-10.36,28.37-20.48,57.31-33.06,85.53-5.07,11.37-6.86,12.97-17.88,19.7L24.84,443.68c-3.96,2.41-7.3,3.73-10.54,6.14.43-.9.96-1.26.39-1.33h-.02Z"/>
            <path class="cls-10" d="M25.79,437.24l26.78-27.74c-.16.16.63.74.88.49l18.23-18.03,16.22-15.57,147.34-146.5c.02-.72,7.82,5.61,7.06,6.3l-35.68,82.11c-1.82,4.17-3.32,8.96-6.24,11.89-6.78,5.19-14.03,8.4-21.48,13.02L27.81,437.04c-.78.48-1.49.55-2.01.19h0Z"/>
            <path class="cls-14" d="M52.57,409.51l18.17-18.58,43.89-44.98,117.48-119.26c1.25.47,2.69,1.88,3.11,3.22l-147.34,146.5-16.22,15.57-18.23,18.03c-.26.26-1.04-.33-.88-.49h0Z"/>
          </g>
        </g>
      </g>
    </g>
  </g>
</svg>