<?xml version="1.0" encoding="UTF-8"?>
<svg id="Calque_2" data-name="Calque 2" xmlns="http://www.w3.org/2000/svg" xmlns:xlink="http://www.w3.org/1999/xlink" viewBox="0 0 374.35 376.89">
  <defs>
    <style>
      .cls-1 {
        fill: #4a494a;
      }

      .cls-2 {
        fill: #5b5c5d;
      }

      .cls-3 {
        fill: url(#Dégradé_sans_nom_6);
      }

      .cls-4 {
        fill: #a5a7a6;
      }

      .cls-5 {
        fill: #6b7177;
      }

      .cls-6 {
        fill: #8d8c8b;
      }

      .cls-7 {
        fill: url(#Dégradé_sans_nom_2);
      }

      .cls-8 {
        fill: #bfc2c0;
      }

      .cls-9 {
        fill: #2b2a2a;
      }

      .cls-10 {
        fill: #c7d5db;
      }

      .cls-11 {
        fill: url(#Dégradé_sans_nom);
      }

      .cls-12 {
        fill: url(#Dégradé_sans_nom_4);
      }

      .cls-13 {
        fill: url(#Dégradé_sans_nom_3);
      }

      .cls-14 {
        fill: #3a3738;
      }

      .cls-15 {
        fill: #454446;
      }

      .cls-16 {
        fill: url(#Dégradé_sans_nom_5);
      }

      .cls-17 {
        fill: #acb8be;
      }

      .cls-18 {
        fill: #5c595a;
      }

      .cls-19 {
        fill: #959ea4;
      }

      .cls-20 {
        fill: #bbbebd;
      }
    </style>
    <linearGradient id="Dégradé_sans_nom" data-name="Dégradé sans nom" x1="194.55" y1="322.13" x2="54.11" y2="179.73" gradientTransform="translate(55.72 419.53) rotate(-15.11) scale(1 -1)" gradientUnits="userSpaceOnUse">
      <stop offset=".35" stop-color="#9aa7ae"/>
      <stop offset="1" stop-color="#788187"/>
    </linearGradient>
    <linearGradient id="Dégradé_sans_nom_2" data-name="Dégradé sans nom 2" x1="201.66" y1="349.02" x2="202.33" y2="262.03" gradientTransform="translate(55.72 419.53) rotate(-15.11) scale(1 -1)" gradientUnits="userSpaceOnUse">
      <stop offset="0" stop-color="#6d747a"/>
      <stop offset="1" stop-color="#7e888f"/>
    </linearGradient>
    <linearGradient id="Dégradé_sans_nom_3" data-name="Dégradé sans nom 3" x1="143.66" y1="183.8" x2="61.9" y2="134.45" gradientTransform="translate(55.72 419.53) rotate(-15.11) scale(1 -1)" gradientUnits="userSpaceOnUse">
      <stop offset="0" stop-color="#737c83"/>
      <stop offset="1" stop-color="#63676b"/>
    </linearGradient>
    <linearGradient id="Dégradé_sans_nom_4" data-name="Dégradé sans nom 4" x1="164.3" y1="127.26" x2="172.55" y2="36.63" gradientTransform="translate(55.72 419.53) rotate(-15.11) scale(1 -1)" gradientUnits="userSpaceOnUse">
      <stop offset="0" stop-color="#696f75"/>
      <stop offset="1" stop-color="#54565c"/>
    </linearGradient>
    <linearGradient id="Dégradé_sans_nom_5" data-name="Dégradé sans nom 5" x1="257.71" y1="180.02" x2="336.13" y2="176.37" gradientTransform="translate(55.72 419.53) rotate(-15.11) scale(1 -1)" gradientUnits="userSpaceOnUse">
      <stop offset="0" stop-color="#5f6265"/>
      <stop offset="1" stop-color="#4d4c4e"/>
    </linearGradient>
    <linearGradient id="Dégradé_sans_nom_6" data-name="Dégradé sans nom 6" x1="202.64" y1="127.68" x2="194.03" y2="39.09" gradientTransform="translate(55.72 419.53) rotate(-15.11) scale(1 -1)" gradientUnits="userSpaceOnUse">
      <stop offset="0" stop-color="#5a5a5d"/>
      <stop offset="1" stop-color="#454244"/>
    </linearGradient>
  </defs>
  <g id="Calque_2-2" data-name="Calque 2">
    <g id="Calque_7" data-name="Calque 7">
      <g id="Objet_génératif" data-name="Objet génératif">
        <g>
          <path class="cls-11" d="M164.9,111.49l6.14,23.75c.21.79.11,1.6.29,2.39-3.28.94-6.35,2.54-9.58,3.93,1.36-.59-9.32,5.17-6.66,4.8-16.67,12.34-23.74,33.57-18.14,53.43l-30.92,8.41-38.09,10.56-56.89,15.8c-2.83.79-5.84,1.18-8.71,2.51-.53.25-1.59.22-1.6-.41,1.12-1.93,3.41-2.78,5.14-4.07,1.08-.54,1.42,0,.31.94,3.16-.64,6.36-.5,9.26-2.51l94.53-65.44c5.08-3.52,8.11-8.86,8.96-14.63.07-.47-.27-1-.26-1.34,0-.2-.2-.13-.52-.2-.24-.51.33-.64.67-.81,4.35-2.29,7.69-6.26,8.28-11.63l13.4-120.96c1.75,2.88,1.31,5.18,1.88,7.54l3.8,15.84c.48,1.99.89,3.85,1.33,5.57l4.19,16.93,5.55,22.36c2.3,9.26,5.31,18.37,7.61,27.26h.03Z"/>
          <path class="cls-5" d="M192.4,84.97l19.25,27.53c2.9,4.16,9.49,7.74,13.09,4.13.4.15.75.21,1.14.26,3.19,7.84,8.38,11.83,17.47,12.66l40.81,3.73,71.27,5.4c1.38.43,2.38-.58,3.84.07l-112.87,30.47c-.22.12-.1.58-.02.59-4.2,1.79-8.85,1.58-8.79,3.72-.72-.18-1.41-.73-2.18-.34,0-.28-.08-.55-.22-.7-.24-.26-.6-.27-1.4.43-6.91-25.67-32.57-41.23-58.66-36.07-1.29.25-2.59.4-3.81.75-.18-.79-.09-1.58-.29-2.39.86.08.93-.5,1.2-1.31l17.62-51.33c1,1.41,1.34,2.8,2.53,2.36h0Z"/>
          <path class="cls-19" d="M372.23,135.27c0,.17.34.59.19.7-.16.13-.55.29-.93.4l-15.42,4.36-104.98,28.24c-1.73-.34-3.35.27-4.7.85-.09-.02-.19-.48.02-.58l112.87-30.47c-1.46-.66-2.47.34-3.84-.08l-71.27-5.4-40.81-3.73c-9.09-.83-14.28-4.82-17.47-12.66l72.46,9.17,73.89,9.2h0Z"/>
          <path class="cls-17" d="M118.17,149.4c.31.07.52.01.52.2-.01.34.33.87.26,1.34-.85,5.77-3.88,11.11-8.96,14.63L15.46,231.02c-2.9,2-6.08,1.87-9.26,2.51,1.1-.94.77-1.48-.31-.94l37.75-28.16,74.52-55.03h0Z"/>
          <path class="cls-10" d="M140.3,10.48l6.64,27.96,5.23,21.22,5.52,22.34,5.95,23.88c.48,1.94.57,3.87,1.27,5.59-2.3-8.9-5.32-18.01-7.61-27.26l-5.55-22.36-4.19-16.93c-.42-1.72-.84-3.57-1.33-5.57l-3.8-15.84c-.57-2.37-.14-4.66-1.88-7.54l-13.4,120.96c-.6,5.37-3.93,9.35-8.28,11.63-1.18.09.87-5.02.52-5.47-1.01-1.28.49-2.04.39-2.73-.17-1.29.26-5.05,1.02-5.67-.9,2.24,2.16-16.65,1.17-12.67l.74-2.97c.11-.43-.5-1.29-.06-1.76.23-.24.33-.78.38-1.18l1.83-14.51c1.11-8.72,1.84-14.14,3.02-22.66l.97-7.01.88-6.82,1.36-9.76c.18-1.27,1.7-13.9,1.73-13.97.59-2.12.62-4.26.91-6.44l1.93-14.58c.24-1.77,1.11-8.73,1.46-10.42l1.44-6.97c.27,2.55,1.17,5,1.77,7.49h-.04Z"/>
          <path class="cls-2" d="M224.74,116.64c-3.6,3.61-10.19.03-13.09-4.13l-19.25-27.53-24.39-35.57-26.79-39.51c-.14.36-.51.57-.93.6-.59-2.49-1.5-4.94-1.77-7.49-.08-.8-.85-1.61-.3-3l86.51,116.64h0Z"/>
          <path class="cls-7" d="M192.4,84.97c-1.2.44-1.53-.95-2.53-2.36l-17.62,51.33c-.28.8-.34,1.39-1.2,1.31l-6.14-23.75c-.69-1.73-.78-3.65-1.27-5.59l-5.95-23.88-5.52-22.34-5.23-21.22-6.64-27.96c.42-.02.78-.24.93-.6l26.79,39.51,24.39,35.57h.02Z"/>
          <g>
            <path class="cls-13" d="M136.96,199.78c2.65,9.38,8.71,17.04,15.34,23.82.9.92,1.75,2.44,3.32,3.39,13.1,7.85,21.05,10.11,35.53,8.99l3.56-.28-21.42,51.82c-.46,1.11-1.09,1.79-1.75,2.4l-25.67-33.88c.64-2.13-.74-4.48-2.39-6.01-3.48-3.21-7.61-4.15-12.41-4.54l-78.26-6.49-41.6-3.15c-.1-.54.07-.99-.16-1.3l56.89-15.8,38.09-10.56,30.92-8.41h0Z"/>
            <path class="cls-12" d="M232.3,363.12c.28,1.23,3.68,12.26,3.16,11.83.21.18.36.48.58.15.22.25.2,1,.14,1.36-.03.23-.51.69-.84.23l-63.81-86.79c.64-.61,1.29-1.3,1.75-2.4l21.42-51.82c1.13-.09,2.33-1.55,2.77.12l29.24,109.37c1.72,6.46,2.86,12.73,4.88,19.03.07.23-1.07.81-.3,1,.29.08.51.28.81.03.62-.52-.91-2.02.21-2.14h0Z"/>
            <path class="cls-14" d="M236.04,375.1c-.22.34-.37.03-.58-.15.52.43-2.88-10.6-3.16-11.83l-1.2-5.17c.29.18.62-.21.63.02.03.55.03.96.95,1.07-.58-1.28.33-1.81.42-2.96l7.48-90.86c.07-.89-.21-1.17-.36-1.52,2.27-10.19,2.14-21.07,3.62-31.79,1.46-10.6,7.26-15.21,15.71-21.52,10.67-7.97,21.91-14.93,31.91-23.21.89-.74,2.32-1.15,3.61-2.05l59.61-41.58c.8-.56,1.42-.76,1.62-1.19.29-.66-.16-1.15-.25-1.62l15.42-4.36c.38-.1.78-.27.93-.4.14-.11-.19-.53-.19-.7.61.07,1.55-.21,2.13.48l-117.65,87.96c-1.96,1.46-2.32,2.43-2.6,4.75l-18.04,146.64h-.02Z"/>
            <path class="cls-1" d="M.75,236.66c.01.63,1.07.65,1.6.41,2.86-1.32,5.87-1.72,8.71-2.51.23.31.05.75.16,1.3l41.6,3.15,78.26,6.49c4.81.4,8.93,1.33,12.41,4.54,1.64,1.52,3.02,3.88,2.39,6.01L1.07,237.88c-.4-.05-.73-.3-.98-.39-.16-.06-.12-.35.1-.55.12-.12.44-.08.56-.28Z"/>
            <path class="cls-4" d="M196.98,233.84c3.68-1.12,7.46-1.44,10.64-4.45-.98.93,6.61-3.14,5.34-2.66,2.99-1.13,6.43-5.5,6.35-4.05-5.33,4.77-11.64,9.14-18.82,11.22-.81.24-1.61.47-2.79,1.15l33.4,122.9,1.2,5.17c-1.12.11.4,1.61-.21,2.14-.3.25-.52.05-.81-.03-.76-.19.38-.78.3-1-2.02-6.3-3.14-12.56-4.88-19.03l-29.24-109.37c-.45-1.67-1.64-.21-2.77-.12l-3.56.28c-14.48,1.13-22.43-1.13-35.53-8.99-1.58-.94-2.43-2.47-3.32-3.39.82.21,1.54.93,2.33,1.56,11.67,9.43,29.2,12.67,42.35,8.67h0Z"/>
            <path class="cls-15" d="M235.41,173.2c.78-.39,1.46.16,2.18.34l53.11,13.14c.59.14.84.16.77.49-10.01,8.28-21.23,15.23-31.91,23.21-8.46,6.31-14.26,10.92-15.71,21.52-1.48,10.73-1.35,21.6-3.62,31.79l-38.76-28.5c-.61-.45-1.08-.68-.99-1.29,7.18-2.08,13.49-6.45,18.82-11.22,12.26-10.96,18.53-28.87,15.2-45.05-.21-1.02.05-2.53-.95-4.21.83-.46,1.32.26,1.85-.22h0Z"/>
            <path class="cls-16" d="M246.39,169.83c1.35-.57,2.97-1.19,4.7-.85l104.98-28.24c.08.48.54.96.25,1.62-.19.44-.82.64-1.62,1.19l-59.61,41.58c-1.29.9-2.71,1.31-3.61,2.05.07-.33-.19-.34-.77-.49l-53.11-13.14c-.06-2.14,4.59-1.93,8.79-3.72h0Z"/>
            <path class="cls-3" d="M200.49,233.9c-.08.61.38.84.99,1.29l38.76,28.5c.14.36.43.63.36,1.52l-7.48,90.86c-.09,1.15-1.01,1.68-.42,2.96-.92-.11-.91-.52-.95-1.07-.02-.22-.34.16-.63-.02l-33.4-122.9c1.18-.67,1.99-.91,2.79-1.15h0Z"/>
          </g>
          <g>
            <path class="cls-18" d="M234.03,177.76c-.6-2.4.8,7.12.47,6.54-2.33-.5-3.81-.61-5.44-.02-1.05-17.28-10.21-31.02-26.46-38.23-4.12-1.82-7.93-3.24-12.45-3.37-.37-.25-.88-.01-.67.51-14.49-.99-28.45,4.18-38.07,15.94-8.4,10.26-12.05,24.82-8.29,38.58,3.45,12.66,12.65,22.95,24.35,27.73-.19-.91-.65-.81-.81-.88-.47-.22-.76-.87-.02-1.18.33-.14.6.29.81.32.27.03.48-.23.17-.45,12.46,6.01,26.3,6.07,38.46-1.34,16.93-10.33,24.66-30.81,17.71-49.74-2.43-6.63-6.81-13.15-12.55-17.21.7-.29.07-.68.04-.96-.05-.47.62-1.08,1.08-1.02,5.66,4.84,10.66,10.56,13.34,18.29,7.71,22.34-2.2,45.32-23.48,54.21-10.54,4.41-20.59,4.19-31,1.85,6.18,3.05,13.42,3.72,19.99,2.23l7.06-1.6c1.04,1.63-1.86.73-2.02,1.74-.19,1.24,1.56,2.14.74,4.17-13.16,4-30.68.76-42.35-8.67-.78-.64-1.5-1.36-2.33-1.56-6.63-6.79-12.69-14.44-15.34-23.82-5.6-19.85,1.48-41.09,18.14-53.43,15.51-11.48,37.1-12.69,54.32-3.47,10.65,5.7,17.47,14.6,21.73,24.92,1.35,3.27,2.07,6.65,2.88,9.94h-.01Z"/>
            <path class="cls-8" d="M171.33,137.62c1.22-.35,2.52-.49,3.81-.75,26.08-5.17,51.75,10.4,58.66,36.07.8-.7,1.16-.69,1.4-.43.13.15.22.42.22.7-.52.48-1.01-.25-1.85.22,1,1.68.73,3.18.95,4.21l-.48.13c-.83-3.3-1.53-6.67-2.88-9.94-4.26-10.32-11.07-19.22-21.73-24.92-17.22-9.22-38.8-8.02-54.32,3.47-2.67.36,8.02-5.4,6.66-4.8,3.23-1.39,6.3-2.99,9.58-3.93v-.02Z"/>
            <path class="cls-9" d="M189.48,143.19c8.37.57,16.51,4.33,22.88,9.77-.46-.06-1.13.54-1.08,1.02.02.28.65.67-.04.96-5.98-4.25-13.76-6.23-21.31-6.21-15.81.03-30.34,9.01-37.57,22.64-9.97,18.84-3.07,41.42,15.26,51.87.31.22.1.48-.17.45-.21-.03-.48-.46-.81-.32-.74.31-.45.95.02,1.18.16.08.61-.03.81.88-11.7-4.79-20.89-15.08-24.35-27.73-3.76-13.77-.11-28.32,8.29-38.58,9.61-11.75,23.57-16.92,38.07-15.94h0Z"/>
            <path class="cls-6" d="M219.31,222.67c.07-1.45-3.36,2.93-6.35,4.05,1.26-.47-6.33,3.59-5.34,2.66-3.17,3.01-6.96,3.33-10.64,4.45.83-2.04-.94-2.93-.74-4.17.16-1,3.07-.1,2.02-1.74,18.71-5.5,31.97-24.46,30.8-43.66,1.62-.58,3.12-.47,5.44.02.33.57-1.07-8.94-.47-6.54l.48-.13c3.32,16.17-2.96,34.08-15.2,45.05h0Z"/>
            <path class="cls-20" d="M229.06,184.28c1.17,19.2-12.09,38.16-30.8,43.66l-7.06,1.6c-6.57,1.49-13.81.83-19.99-2.23,10.41,2.35,20.45,2.56,31-1.85,21.28-8.89,31.19-31.88,23.48-54.21-2.67-7.73-7.67-13.45-13.34-18.29-6.37-5.45-14.51-9.21-22.88-9.77-.21-.52.3-.76.67-.51,4.52.14,8.33,1.55,12.45,3.37,16.26,7.21,25.41,20.95,26.46,38.23h0Z"/>
          </g>
        </g>
      </g>
    </g>
  </g>
</svg>